<?xml version="1.0" standalone="no"?>
<!DOCTYPE svg PUBLIC "-//W3C//DTD SVG 20010904//EN"
 "http://www.w3.org/TR/2001/REC-SVG-20010904/DTD/svg10.dtd">
<svg version="1.0" xmlns="http://www.w3.org/2000/svg"
 width="100vw" height="100vh" viewBox="0 0 2116.000000 968.000000"
 preserveAspectRatio="xMidYMid meet">

<g transform="translate(0.000000,968.000000) scale(0.100000,-0.100000)"
fill="#000000" stroke="none">
<path d="M12210 8632 c-159 -233 -160 -233 -182 -221 -26 14 -31 6 -54 -81
-12 -45 -38 -95 -82 -162 -36 -54 -68 -98 -71 -98 -3 0 -117 36 -252 78 l-246
78 14 -70 c38 -201 44 -239 40 -250 -3 -6 -63 -51 -134 -99 l-129 -87 -129 6
-130 5 58 -53 c55 -50 57 -54 40 -70 -15 -16 -15 -18 -1 -18 8 0 18 -9 21 -20
4 -15 14 -20 42 -20 26 0 48 -9 77 -31 21 -17 37 -33 35 -36 -4 -3 -192 -36
-277 -48 -29 -4 -31 -3 -12 5 24 10 29 45 9 70 -11 14 -35 13 -232 -12 -121
-15 -227 -27 -235 -28 -8 0 19 -22 60 -49 41 -27 110 -84 152 -127 l78 -79
-150 -38 c-82 -21 -154 -36 -159 -33 -5 4 -12 2 -16 -4 -3 -5 -12 -10 -18 -10
-8 0 -7 3 2 9 8 5 10 14 6 21 -5 8 -4 11 1 7 5 -3 15 6 21 19 l12 25 -28 -18
c-238 -154 -1008 -679 -999 -680 7 -2 106 3 221 10 114 6 207 10 207 7 0 -3
-58 -36 -129 -75 -71 -38 -128 -71 -126 -73 1 -1 111 15 243 38 132 22 244 40
248 40 4 0 -20 -21 -55 -46 -34 -26 -60 -48 -58 -50 2 -2 25 0 50 5 26 4 47 7
47 6 0 -1 -129 -80 -286 -175 -272 -165 -285 -174 -266 -189 86 -68 272 -227
272 -233 0 -5 -40 -54 -90 -110 -49 -56 -87 -104 -85 -106 2 -2 25 3 51 12 26
9 50 16 53 16 3 0 -70 -76 -162 -168 -92 -93 -167 -171 -167 -174 0 -3 18 3
40 14 45 23 90 17 58 -6 -20 -14 -24 -46 -7 -46 5 0 8 3 6 8 -2 4 4 15 14 24
17 16 18 15 30 -20 7 -20 12 -40 11 -44 -1 -5 3 -8 9 -8 6 0 1 -9 -12 -21 -13
-11 -18 -17 -10 -13 7 3 17 1 21 -5 5 -9 50 4 160 44 84 30 155 54 157 52 1
-2 -43 -62 -100 -133 -225 -283 -276 -348 -273 -351 1 -2 85 35 186 82 100 47
185 84 187 81 13 -12 -70 -132 -233 -338 -97 -123 -180 -225 -183 -228 -17
-13 -122 -152 -118 -156 2 -3 50 13 106 35 55 21 101 36 101 33 0 -3 -23 -49
-50 -103 -44 -86 -120 -253 -120 -265 0 -5 136 80 196 122 23 16 70 49 105 74
35 25 70 49 77 54 10 6 -57 -96 -95 -144 -6 -8 -117 -174 -247 -367 l-236
-353 33 -14 c318 -136 1303 -562 1392 -601 66 -29 161 -70 210 -91 97 -41 58
-7 925 -804 58 -53 157 -143 220 -200 63 -56 157 -142 209 -189 52 -47 99 -90
105 -96 126 -114 230 -208 266 -241 57 -52 107 -94 112 -94 9 0 135 113 454
405 60 56 154 141 209 190 92 82 773 704 1011 922 98 90 105 94 255 158 l154
66 103 167 104 167 181 163 c100 89 212 190 249 224 l66 63 -8 115 c-5 63 -16
207 -24 319 -9 112 -16 221 -16 243 0 39 0 39 37 36 36 -3 42 -9 153 -165 63
-89 118 -165 122 -169 4 -4 34 17 68 46 l60 52 47 -30 c26 -17 49 -30 50 -28
2 1 -9 27 -23 57 l-26 54 61 57 c33 32 61 60 61 63 0 3 -53 30 -118 61 l-118
55 -171 340 c-154 303 -176 357 -137 331 12 -7 198 -248 437 -564 78 -103 145
-186 149 -185 3 1 76 69 162 150 125 119 156 154 156 176 0 21 -55 81 -288
314 l-288 288 -114 9 c-63 5 -123 10 -132 10 -16 0 -211 241 -208 257 1 4 56
53 123 109 l121 101 41 -43 40 -43 310 108 c171 60 323 114 339 120 33 13 80
-18 -566 371 -141 85 -256 156 -254 158 2 1 54 -6 116 -18 63 -11 115 -19 116
-17 1 1 -102 79 -231 172 -128 94 -232 171 -232 172 1 1 148 -7 326 -18 178
-11 326 -18 328 -16 2 2 -206 144 -461 315 -300 201 -468 308 -472 300 -4 -7
-3 -8 4 -4 8 5 12 -5 12 -32 0 -32 -4 -41 -21 -45 -16 -4 -20 -11 -16 -26 3
-13 1 -19 -5 -15 -8 5 -9 -9 -4 -44 6 -43 4 -51 -12 -56 -20 -7 -24 -43 -6
-50 8 -3 11 3 8 20 -3 14 -1 23 5 20 5 -3 11 -19 13 -35 l4 -29 -80 30 c-44
16 -84 35 -88 41 -4 7 -8 8 -8 4 0 -5 -22 18 -49 50 -27 32 -46 61 -43 64 4 3
58 25 120 49 l113 43 -38 13 c-21 7 -105 29 -186 50 -81 20 -144 41 -140 45 9
8 220 87 398 149 66 23 123 45 127 49 4 4 -166 43 -378 89 -277 59 -394 88
-415 103 -16 11 -29 24 -29 28 0 4 24 27 53 51 l52 43 -117 -7 -116 -7 -131
87 -131 87 -1 41 c-1 85 -24 395 -30 400 -3 3 -108 -56 -233 -130 -172 -102
-234 -134 -251 -130 -46 12 -61 38 -85 145 -33 154 -48 201 -66 201 -9 0 -69
-33 -135 -74 l-119 -73 -86 42 -86 42 -35 74 c-20 41 -48 104 -62 141 l-26 67
-55 -120 c-30 -66 -57 -122 -61 -125 -4 -2 -40 73 -80 167 -40 93 -76 172 -80
174 -3 3 -39 -44 -79 -103z m516 -344 l21 -42 -86 -74 c-78 -69 -86 -73 -89
-52 -2 12 3 29 11 37 8 9 12 25 8 41 l-5 27 -7 -30 c-7 -30 -7 -30 -8 -3 -1
21 13 39 62 82 34 31 64 56 68 56 3 0 14 -19 25 -42z m-698 -227 c49 -42 60
-56 51 -67 -9 -11 -20 -7 -58 25 -98 84 -103 90 -97 107 7 19 5 20 104 -65z
m1659 -77 c-3 -3 -12 -4 -19 -1 -8 3 -5 6 6 6 11 1 17 -2 13 -5z m-80 -10 c-3
-3 -12 -4 -19 -1 -8 3 -5 6 6 6 11 1 17 -2 13 -5z m-40 -10 c-3 -3 -12 -4 -19
-1 -8 3 -5 6 6 6 11 1 17 -2 13 -5z m-1760 -74 c1 -19 -1 -27 -3 -17 -3 9 -10
17 -15 17 -5 0 -9 8 -9 18 0 14 -2 15 -10 2 -5 -8 -10 -10 -10 -4 0 16 12 25
30 22 10 -2 16 -15 17 -38z m1547 13 c-4 -16 -11 -32 -15 -37 -5 -6 -10 -21
-10 -35 -1 -15 -5 -1 -9 29 -8 63 -6 70 21 70 16 0 18 -5 13 -27z m-173 -110
c-12 -20 -14 -14 -5 12 4 9 9 14 11 11 3 -2 0 -13 -6 -23z m-1731 -49 c0 -15
-6 -24 -15 -24 -8 0 -15 7 -15 16 0 8 5 12 11 8 8 -4 9 1 4 16 -5 15 -4 20 4
16 6 -4 11 -18 11 -32z m1700 -64 c0 -5 -4 -19 -9 -32 -6 -13 -22 -63 -37
-113 -15 -49 -31 -92 -36 -93 -4 -2 -6 -8 -2 -13 8 -13 -5 -49 -18 -49 -7 0
-7 5 1 14 6 7 9 21 5 29 -4 12 -11 14 -31 6 -31 -12 -42 -11 -23 1 8 5 15 15
15 22 1 19 -18 28 -32 16 -9 -7 -13 -7 -13 1 0 6 10 16 23 21 21 8 21 9 -5 9
-27 1 -46 17 -33 29 3 3 10 0 16 -8 7 -13 10 -13 18 -1 5 8 14 10 22 6 11 -6
11 -5 3 4 -6 7 -21 12 -33 12 -11 -1 -30 -1 -41 -2 -11 0 -20 -4 -20 -8 0 -5
-11 -8 -25 -8 -26 0 -25 0 7 21 18 12 74 47 123 77 50 30 92 57 93 62 5 10 32
9 32 -3z m1174 -266 c11 -4 -7 -25 -67 -75 -75 -64 -102 -78 -102 -52 0 10
135 133 146 133 4 0 14 -3 23 -6z m-3969 -335 c11 -16 -11 -16 -29 2 -18 17
-18 18 3 12 12 -3 24 -9 26 -14z m4582 -11 c-3 -8 -6 -5 -6 6 -1 11 2 17 5 13
3 -3 4 -12 1 -19z m-4467 -28 c5 0 29 -9 55 -20 l46 -20 -17 -26 c-17 -25 -18
-25 -32 -8 -13 18 -13 17 -10 -6 2 -19 -1 -25 -14 -24 -10 1 -16 -2 -13 -5 2
-4 -12 -15 -31 -24 -44 -21 -55 -22 -26 -1 31 21 29 54 -3 54 -14 0 -25 5 -25
11 0 6 -7 9 -15 5 -17 -6 -21 24 -5 40 7 7 8 19 1 37 l-10 26 45 -20 c25 -10
49 -19 54 -19z m4440 -274 c0 -9 -30 -14 -35 -6 -4 6 3 10 14 10 12 0 21 -2
21 -4z m-816 -437 c113 -224 206 -410 206 -415 0 -5 -102 -43 -227 -85 -216
-72 -228 -75 -231 -56 -6 36 35 974 43 965 1 -2 95 -186 209 -409z m-2843 199
c23 -544 30 -697 35 -735 l6 -42 -223 74 c-123 41 -230 77 -237 80 -10 3 45
119 184 392 109 214 203 398 208 410 6 12 13 20 15 17 2 -2 8 -90 12 -196z
m2033 181 c58 -8 100 -18 103 -25 2 -7 -3 -24 -13 -39 -16 -25 -16 -27 7 -53
17 -20 14 -18 -12 6 -33 31 -39 32 -115 32 -81 0 -81 0 -152 -50 -40 -28 -72
-54 -72 -58 0 -5 36 -28 81 -51 75 -40 85 -43 136 -38 31 3 74 17 101 32 29
16 38 19 23 7 -18 -14 -21 -21 -11 -27 9 -5 11 -4 6 3 -4 7 -3 12 2 12 5 0 12
-11 14 -24 4 -20 -3 -27 -50 -50 l-54 -27 -132 17 c-130 16 -166 26 -166 45 0
5 -20 29 -45 53 l-46 43 133 106 c73 58 140 104 148 102 8 -2 59 -9 114 -16z
m-1055 -200 c1 -3 -10 -12 -24 -19 -13 -7 -36 -30 -50 -52 -24 -35 -64 -55
-52 -25 3 8 1 20 -3 27 -5 8 -4 22 1 32 11 21 -5 77 -44 150 l-24 46 98 -77
c53 -42 98 -79 98 -82z m-238 59 c22 -12 39 -28 39 -35 0 -7 -24 -24 -52 -36
-71 -31 -130 -26 -158 13 -25 36 -25 45 2 64 34 24 122 21 169 -6z m1307 6
c28 -19 28 -32 -1 -67 -18 -22 -31 -27 -67 -29 -50 -1 -130 33 -130 56 0 45
149 75 198 40z m-776 -198 c30 -7 44 -36 29 -64 -5 -10 -6 -24 -1 -31 5 -9 -2
-33 -17 -63 -29 -58 -41 -122 -24 -132 8 -5 8 -13 1 -27 -7 -13 -7 -25 -1 -37
7 -13 6 -23 -2 -32 -10 -10 -8 -12 6 -6 16 5 18 2 14 -29 -5 -35 -5 -35 34
-35 21 0 39 3 40 8 0 4 3 23 5 42 3 19 6 52 6 73 2 27 6 36 16 32 8 -3 10 0 6
7 -4 6 -8 24 -10 39 -2 16 -15 52 -29 80 -15 28 -24 58 -21 66 3 8 1 11 -4 8
-6 -3 -10 -1 -10 4 0 6 4 11 9 11 5 0 8 18 7 40 -2 38 -1 40 33 46 20 3 56 12
81 19 25 8 71 21 103 29 l59 15 38 -82 c29 -63 40 -99 44 -152 2 -38 10 -112
16 -163 6 -52 10 -95 8 -97 -2 -2 -34 2 -70 10 -59 12 -74 12 -140 -4 -200
-48 -175 -47 -317 -13 -125 31 -129 31 -197 17 -38 -8 -72 -15 -75 -15 -3 0
-2 21 2 48 4 26 8 60 8 76 l1 29 -19 -22 c-21 -24 -111 -45 -97 -23 4 7 2 12
-3 12 -6 0 -11 -6 -11 -14 0 -8 -12 -16 -27 -18 -26 -3 -33 -16 -101 -183 -51
-126 -72 -189 -69 -210 17 -121 63 -365 69 -365 15 0 58 79 144 263 47 103 91
187 97 187 6 0 27 -15 47 -33 22 -21 57 -40 96 -52 55 -16 71 -27 165 -120
l103 -102 -3 -51 c-1 -29 0 -52 2 -52 3 0 14 16 26 35 11 19 33 40 48 45 16 6
35 13 43 17 8 3 19 5 23 4 5 -1 5 4 1 10 -3 6 -3 14 2 18 5 3 14 15 20 26 6
11 21 21 33 23 11 2 21 11 22 20 0 10 3 12 6 5 3 -9 10 -7 25 7 13 11 17 23
12 32 -6 10 -5 10 7 2 12 -10 125 -93 362 -268 72 -52 78 -60 72 -84 -3 -15
-10 -31 -15 -35 -4 -5 -47 -1 -94 8 -48 10 -88 16 -90 14 -1 -2 -17 -62 -36
-134 -18 -71 -36 -136 -40 -143 -13 -25 -48 99 -60 208 -7 58 -12 105 -13 106
-1 0 -79 16 -174 36 l-171 35 -183 -37 c-101 -20 -184 -41 -185 -46 -2 -5 -7
-54 -13 -109 -8 -87 -50 -239 -57 -210 -40 165 -79 295 -88 294 -6 0 -48 -8
-93 -18 l-81 -18 -31 98 c-17 53 -31 101 -31 106 0 5 -81 67 -179 138 l-180
128 47 57 c26 31 101 123 167 203 l120 145 55 -5 56 -5 31 51 c25 40 38 51 58
51 39 0 40 0 37 -17 -3 -11 1 -14 13 -9 9 3 13 2 10 -4 -3 -6 -13 -10 -21 -10
-8 0 -14 -4 -14 -10 0 -12 6 -12 50 5 25 10 29 14 15 15 l-20 1 20 9 c14 5 24
3 34 -9 10 -12 15 -13 18 -3 3 6 10 12 18 12 24 0 34 25 46 115 8 65 21 108
45 157 l33 66 113 -28 c62 -15 125 -31 140 -34z m-442 29 c11 -13 8 -15 -13
-15 -19 0 -25 4 -21 15 4 8 10 15 14 15 4 0 13 -7 20 -15z m2880 -95 c0 -5 -2
-10 -4 -10 -3 0 -8 5 -11 10 -3 6 -1 10 4 10 6 0 11 -4 11 -10z m-4317 -55
c10 -14 15 -30 11 -37 -4 -6 -3 -8 4 -4 28 17 16 -23 -54 -180 -276 -616 -295
-656 -336 -705 -22 -27 -39 -51 -37 -53 2 -2 51 -36 109 -75 222 -150 217
-144 219 -219 l1 -33 -193 131 c-203 137 -187 123 -392 359 -23 27 -1 15 97
-52 l126 -87 51 59 c28 32 63 85 77 117 15 33 46 103 71 158 24 54 43 100 41
102 -2 2 -21 -33 -43 -77 l-38 -80 -27 26 c-14 14 -29 22 -33 18 -4 -3 -7 -1
-7 5 0 6 -14 18 -32 26 -29 15 -33 15 -50 -1 -32 -29 -31 -6 2 54 49 89 75
119 138 160 l57 38 -30 5 c-41 7 -41 47 1 92 17 18 77 88 133 156 56 67 105
122 109 122 4 0 15 -12 25 -25z m4093 -235 c120 -140 274 -318 341 -395 75
-86 122 -148 122 -160 -1 -17 -2 -17 -6 -2 -2 9 -9 15 -14 11 -5 -3 -6 -10 -3
-16 4 -6 2 -8 -4 -4 -6 3 -142 -85 -303 -196 -244 -170 -294 -208 -301 -233
-4 -17 -21 -122 -38 -235 -39 -257 -39 -260 -53 -260 -15 0 -43 -43 -327 -495
-333 -529 -382 -606 -387 -602 -3 4 27 146 118 557 123 552 115 504 88 497
-15 -4 -18 -2 -10 7 6 7 17 39 26 72 8 32 19 60 25 62 5 2 7 9 4 16 -5 14 37
173 61 230 8 17 20 67 29 111 18 94 58 221 51 164 -3 -24 0 -36 8 -36 7 -1 39
-8 72 -18 221 -62 230 -64 215 -35 -15 29 2 25 41 -10 19 -16 37 -30 41 -30 9
0 -41 45 -209 189 -73 62 -133 114 -133 115 0 2 5 17 11 34 l11 32 27 -23 c16
-12 90 -75 166 -140 76 -64 140 -116 142 -114 2 2 -24 73 -58 158 -34 85 -76
195 -94 244 l-32 90 68 137 69 137 -70 111 -70 110 71 91 c40 49 75 88 79 87
4 -2 105 -118 226 -258z m-1281 -136 c66 -80 141 -171 167 -203 l47 -58 -43
-31 c-25 -18 -48 -32 -53 -32 -5 0 -45 37 -90 83 -80 80 -82 85 -141 229 -62
152 -62 152 -17 157 6 0 64 -65 130 -145z m-3115 63 c0 -2 -12 -14 -27 -28
l-28 -24 24 28 c23 25 31 32 31 24z m380 -434 c0 -4 -12 -37 -26 -73 -21 -54
-44 -84 -135 -180 -61 -63 -100 -100 -88 -83 29 42 36 83 39 244 0 23 7 29 48
43 26 8 70 24 97 35 58 22 65 24 65 14z m4436 -105 c-8 -18 -89 -199 -181
-403 -92 -203 -181 -401 -198 -440 -60 -133 -106 -220 -106 -200 0 11 6 31 14
45 23 41 16 48 -8 8 l-23 -37 -38 34 -38 34 37 68 c45 83 547 923 552 923 2 0
-3 -15 -11 -32z m51 -30 c-3 -7 -5 -2 -5 12 0 14 2 19 5 13 2 -7 2 -19 0 -25z
m-5173 -68 c25 -43 46 -84 46 -90 0 -5 5 -10 11 -10 6 0 9 -7 5 -15 -3 -8 -1
-14 4 -12 8 2 273 -431 318 -519 l19 -39 -27 -29 -28 -29 -26 49 c-30 58 -34
54 -6 -7 20 -45 27 -81 12 -64 -5 6 -35 69 -67 140 -32 72 -69 155 -83 185
-24 53 -217 482 -229 508 -3 6 -3 12 0 12 3 0 26 -36 51 -80z m1473 -30 c38
-47 92 -112 118 -145 27 -33 78 -96 114 -139 l65 -79 -74 7 c-60 6 -79 12 -93
29 -23 29 -233 447 -214 427 7 -8 45 -53 84 -100z m2660 -82 c-3 -8 -6 -5 -6
6 -1 11 2 17 5 13 3 -3 4 -12 1 -19z m-3050 -554 c-2 -2 -471 -104 -479 -104
-3 0 -8 21 -11 48 -4 26 -9 65 -13 87 -4 26 -2 35 4 27 7 -11 29 -9 113 11 57
14 112 27 123 29 11 2 25 20 36 48 17 44 17 44 91 60 l74 16 32 -110 c17 -61
31 -111 30 -112z m1152 -141 c1 -7 21 -18 46 -24 l45 -11 0 -50 c0 -42 3 -49
16 -44 10 4 25 -1 34 -9 12 -11 20 -13 25 -5 3 5 12 7 18 3 7 -5 67 -8 134 -8
92 0 124 3 128 13 3 8 13 11 25 7 18 -6 20 -2 20 43 l0 50 44 11 44 11 33 90
c18 49 36 90 40 90 7 0 45 -157 43 -180 -1 -8 -13 -57 -27 -109 l-25 -95 -43
-13 c-58 -17 -55 -18 -69 17 l-13 31 -22 -21 c-26 -24 -41 -25 -49 -4 -5 12
-10 14 -19 5 -9 -7 -24 -8 -44 -2 -17 5 -36 5 -43 1 -7 -5 -21 -3 -32 3 -13 9
-23 9 -37 0 -11 -7 -22 -8 -28 -2 -5 5 -21 5 -39 0 -18 -5 -37 -5 -46 0 -11 6
-18 4 -22 -6 -8 -21 -32 -18 -50 6 -14 21 -15 21 -31 -11 -13 -25 -21 -31 -38
-26 -12 4 -34 9 -48 12 -24 5 -29 15 -54 110 -29 110 -29 134 6 259 l12 40 33
-85 c18 -47 33 -91 33 -97z m-1219 -524 c389 -322 888 -740 923 -772 15 -14
27 -34 27 -43 0 -12 -11 -7 -41 21 -47 42 -46 42 -145 -23 l-71 -47 159 -167
c88 -93 158 -168 155 -168 -2 0 -78 61 -168 135 -89 73 -167 131 -172 128 -6
-3 -7 -1 -4 4 4 6 0 16 -8 23 -18 15 -31 7 -19 -12 12 -19 14 -39 3 -32 -5 3
-7 9 -4 14 3 4 -4 10 -15 13 -11 3 -20 2 -20 -1 0 -4 -12 -13 -27 -20 -16 -7
-39 -21 -52 -31 l-24 -18 56 -119 c30 -66 80 -173 110 -239 57 -125 121 -265
137 -300 128 -277 128 -281 -11 -118 -45 54 -117 136 -159 183 -207 230 -452
524 -466 561 -9 22 -19 37 -22 35 -3 -3 -11 2 -19 12 -8 9 -12 11 -8 5 4 -8 0
-13 -9 -13 -9 0 -16 -4 -16 -10 0 -5 -8 -10 -18 -10 -13 0 -29 22 -52 70 -60
124 -42 67 30 -95 39 -87 79 -169 88 -181 9 -12 72 -89 139 -172 67 -82 119
-152 116 -156 -3 -3 0 -14 7 -23 39 -51 -42 38 -157 173 -123 146 -131 157
-192 295 -35 79 -78 173 -94 209 -171 380 -217 491 -209 507 6 10 13 38 16 63
6 42 6 43 -7 21 -26 -44 -28 -4 -5 86 12 48 30 94 39 100 15 12 11 27 -43 165
-33 84 -67 171 -74 192 l-15 40 23 -21 c13 -11 156 -130 318 -264z m2024 -250
c-47 -82 -93 -150 -102 -153 -9 -2 -63 -10 -120 -17 -97 -12 -105 -14 -132
-45 -16 -18 -58 -92 -94 -163 l-66 -131 0 -217 c0 -189 -2 -214 -14 -198 -10
14 -11 25 -4 38 15 29 4 77 -32 135 -18 28 -36 52 -39 52 -11 0 -11 44 0 51 7
4 -3 33 -25 76 -36 71 -44 103 -26 103 6 0 10 5 10 11 0 5 -5 7 -12 3 -7 -4
-8 -3 -4 4 4 7 -2 33 -14 59 -11 25 -23 67 -26 92 -3 25 -7 48 -10 50 -2 2 4
13 13 24 10 11 12 17 6 13 -8 -4 -13 -1 -13 8 0 9 -1 16 -2 17 -2 0 -55 8
-118 17 l-115 17 -86 151 -87 151 11 86 c6 48 14 87 18 87 4 0 10 -33 14 -73
l6 -73 82 -41 82 -40 100 48 100 49 188 0 187 0 99 -50 99 -49 81 41 c87 44
83 38 97 148 l8 55 12 -94 12 -95 -84 -147z m506 278 c0 -2 -10 -12 -22 -23
l-23 -19 19 23 c18 21 26 27 26 19z m-60 -77 c-11 -16 -25 -32 -31 -35 -5 -4
-8 -9 -7 -13 2 -4 -17 -27 -41 -52 l-44 -45 34 45 c52 70 101 130 106 130 2 0
-5 -13 -17 -30z m-174 -297 c15 -20 21 -33 13 -28 -23 13 -59 48 -59 57 0 18
19 6 46 -29z m102 -102 c3 -8 -1 -12 -9 -9 -7 2 -15 10 -17 17 -3 8 1 12 9 9
7 -2 15 -10 17 -17z m-1349 -266 c53 -55 179 -189 280 -297 101 -109 185 -198
186 -198 2 0 81 84 176 188 210 229 220 239 189 192 -92 -137 -221 -309 -289
-383 -68 -75 -80 -94 -83 -128 l-3 -41 -120 80 c-67 44 -130 90 -142 103 -12
13 -42 47 -66 76 -25 28 -49 49 -53 45 -4 -4 -4 1 -1 11 4 10 2 17 -5 17 -9 0
-9 3 0 12 8 8 15 8 27 -2 14 -11 16 -11 13 1 -2 8 2 13 8 12 6 -1 10 14 10 37
-1 21 2 36 7 33 14 -9 7 15 -9 28 -9 7 -71 77 -137 154 -67 77 -127 146 -134
153 -22 23 -33 50 -27 66 3 9 2 16 -4 16 -5 0 -13 8 -16 18 -4 9 17 -8 45 -38
28 -30 95 -100 148 -155z m1511 100 c19 -19 29 -35 24 -35 -6 0 -25 16 -44 35
-19 19 -29 35 -24 35 6 0 25 -16 44 -35z m-70 -265 c0 -5 -5 -10 -11 -10 -5 0
-7 5 -4 10 3 6 8 10 11 10 2 0 4 -4 4 -10z m-3040 -131 c30 -12 75 -27 100
-36 25 -8 115 -40 200 -71 145 -51 191 -72 162 -72 -14 0 -14 -25 0 -135 9
-68 16 -87 45 -125 19 -25 -5 -2 -53 50 -146 157 -226 236 -214 212 6 -12 11
-39 11 -60 1 -77 7 -140 15 -153 4 -8 -12 4 -37 26 -24 22 -134 121 -244 221
-110 99 -216 195 -235 212 l-35 32 115 -41 c63 -22 140 -49 170 -60z m1290
-54 c0 -8 -2 -15 -4 -15 -2 0 -6 7 -10 15 -3 8 -1 15 4 15 6 0 10 -7 10 -15z
m-153 -22 c0 -9 -4 -10 -14 -2 -7 6 -13 12 -13 14 0 1 6 2 13 2 8 0 14 -6 14
-14z m1782 15 c-2 -2 -21 -19 -42 -37 -20 -19 -37 -32 -37 -27 0 10 62 66 74
66 5 0 7 -1 5 -2z m-884 -1100 c19 -8 25 -19 25 -41 0 -17 -3 -27 -7 -24 -3 4
-12 2 -20 -5 -7 -6 -15 -9 -17 -7 -5 6 -15 89 -11 89 2 0 16 -5 30 -12z"/>
<path d="M10617 6145 c-24 -50 -20 -58 4 -12 11 22 19 41 17 43 -3 2 -12 -12
-21 -31z"/>
<path d="M10562 6022 c-18 -38 -32 -73 -31 -78 0 -5 16 24 35 65 19 41 33 76
31 78 -2 2 -18 -28 -35 -65z"/>
<path d="M10110 5141 c0 -6 4 -13 10 -16 6 -3 7 1 4 9 -7 18 -14 21 -14 7z"/>
<path d="M10251 4835 c0 -5 6 -21 14 -35 8 -14 14 -20 14 -15 0 6 -6 21 -14
35 -8 14 -14 21 -14 15z"/>
<path d="M10291 4745 c0 -5 8 -26 19 -45 11 -19 19 -30 19 -25 0 6 -8 26 -19
45 -11 19 -19 31 -19 25z"/>
<path d="M10850 3505 c0 -5 5 -17 10 -25 5 -8 10 -10 10 -5 0 6 -5 17 -10 25
-5 8 -10 11 -10 5z"/>
<path d="M10891 3408 c18 -47 39 -82 39 -66 0 9 -51 118 -56 118 -2 0 6 -24
17 -52z"/>
<path d="M10930 3325 c0 -5 5 -17 10 -25 5 -8 10 -10 10 -5 0 6 -5 17 -10 25
-5 8 -10 11 -10 5z"/>
<path d="M11060 3270 c29 -23 48 -26 31 -6 -6 8 -22 16 -34 20 -21 5 -21 4 3
-14z"/>
<path d="M10887 7564 c-45 -30 -43 -38 7 -29 29 6 36 12 36 31 0 13 -1 24 -3
24 -1 0 -20 -12 -40 -26z"/>
<path d="M9240 5823 c-71 -94 -76 -103 -62 -103 5 0 12 9 15 21 3 12 10 18 16
14 6 -3 11 1 11 9 0 20 14 21 29 2 7 -8 20 -13 29 -11 9 2 20 4 24 4 3 1 4 11
1 24 l-5 22 20 -22 c11 -12 23 -19 27 -15 5 4 5 1 1 -6 -4 -7 -12 -10 -17 -7
-5 4 -8 -5 -7 -19 2 -24 3 -24 30 -8 15 8 25 19 22 24 -3 4 1 5 9 2 8 -3 18
-1 21 4 8 13 -4 43 -13 37 -4 -2 -8 1 -8 8 0 13 -64 107 -72 107 -3 -1 -35
-40 -71 -87z m118 -14 c-4 -28 -31 -32 -36 -6 -5 23 18 51 30 39 6 -6 8 -20 6
-33z"/>
<path d="M9330 5821 c0 -6 4 -12 8 -15 5 -3 9 1 9 9 0 8 -4 15 -9 15 -4 0 -8
-4 -8 -9z"/>
<path d="M9110 5713 c0 -12 -3 -28 -6 -36 -3 -10 3 -20 16 -27 30 -16 35 -7
20 32 -18 44 -30 57 -30 31z"/>
<path d="M9205 5650 c3 -5 8 -10 11 -10 2 0 4 5 4 10 0 6 -5 10 -11 10 -5 0
-7 -4 -4 -10z"/>
<path d="M9254 5188 l-19 -23 23 19 c21 18 27 26 19 26 -2 0 -12 -10 -23 -22z"/>
<path d="M9135 5071 c-24 -25 -43 -46 -42 -47 1 -2 25 -4 52 -5 36 -2 77 7
143 31 51 18 90 35 88 37 -3 3 -48 10 -101 17 l-95 12 -45 -45z"/>
<path d="M9387 5099 c7 -7 15 -10 18 -7 3 3 -2 9 -12 12 -14 6 -15 5 -6 -5z"/>
<path d="M1332 4491 c-63 -22 -122 -76 -154 -140 -19 -40 -23 -62 -23 -166 0
-105 3 -126 24 -172 26 -59 82 -115 138 -139 59 -24 169 -29 234 -11 84 25
132 65 170 143 32 64 34 75 34 169 0 130 -21 192 -84 255 -78 77 -219 103
-339 61z m205 -121 c54 -32 68 -71 68 -185 0 -82 -4 -107 -21 -139 -55 -105
-215 -101 -268 7 -21 45 -26 182 -7 238 11 35 52 81 81 92 36 13 116 6 147
-13z"/>
<path d="M6203 4499 c-39 -11 -105 -85 -122 -136 -7 -21 -15 -87 -18 -148 -11
-222 55 -345 194 -361 150 -18 235 76 249 274 17 235 -69 384 -220 381 -28 0
-65 -5 -83 -10z m108 -109 c43 -23 54 -67 54 -210 0 -111 -3 -141 -18 -168
-34 -62 -102 -61 -129 2 -19 44 -18 290 1 334 19 44 55 61 92 42z"/>
<path d="M1890 4180 l0 -320 400 0 400 0 0 320 0 320 -70 0 -70 0 0 -260 0
-260 -95 0 -95 0 0 260 0 260 -70 0 -70 0 0 -260 0 -260 -95 0 -95 0 0 260 0
260 -70 0 -70 0 0 -320z"/>
<path d="M2850 4180 l0 -320 83 0 82 0 115 192 c63 105 129 213 145 239 l30
48 -3 -239 -4 -240 66 0 66 0 0 320 0 321 -87 -3 -87 -3 -140 -232 -141 -232
-3 234 -2 235 -60 0 -60 0 0 -320z"/>
<path d="M3580 4179 l0 -321 153 4 c159 5 198 14 244 58 72 67 75 210 6 272
-35 32 -107 57 -185 64 l-78 7 0 58 0 58 133 3 132 3 3 58 3 57 -206 0 -205 0
0 -321z m290 -64 c13 -12 20 -31 20 -56 0 -55 -34 -79 -111 -79 l-59 0 0 81 0
82 65 -6 c43 -3 73 -11 85 -22z"/>
<path d="M4150 4180 l0 -320 70 0 69 0 3 156 3 157 110 -156 110 -156 152 -1
153 0 22 75 23 75 115 0 116 0 22 -75 22 -75 76 0 c66 0 75 2 70 16 -4 9 -55
153 -114 320 l-107 304 -85 0 -86 0 -108 -310 c-60 -170 -112 -310 -116 -310
-5 0 -60 70 -123 157 l-116 156 108 141 c59 78 111 147 115 154 5 9 -10 12
-66 12 l-73 0 -112 -152 -113 -153 0 153 0 152 -70 0 -70 0 0 -320z m906 -48
c-2 -1 -37 -2 -78 0 l-75 3 34 110 c18 61 36 117 39 125 3 8 23 -41 44 -110
21 -68 37 -126 36 -128z"/>
<path d="M5671 4293 c-133 -195 -141 -210 -141 -255 l0 -48 135 0 135 0 0 -65
0 -65 70 0 70 0 0 65 0 65 40 0 40 0 0 55 0 55 -40 0 -40 0 0 200 0 200 -64 0
-65 0 -140 -207z m132 -80 l-6 -113 -69 0 -70 0 21 33 c12 17 45 69 74 114 28
45 53 81 53 80 1 -1 0 -53 -3 -114z"/>
<path d="M6691 4293 c-133 -195 -141 -211 -141 -255 l0 -48 135 0 135 0 0 -65
0 -65 70 0 70 0 0 65 0 65 40 0 40 0 0 55 0 55 -40 0 -40 0 0 200 0 200 -64 0
-64 0 -141 -207z m132 -81 l-6 -112 -69 0 -70 0 21 33 c12 17 45 69 74 114 28
45 53 80 54 79 1 -1 -1 -52 -4 -114z"/>
<path d="M15750 3455 c-52 -30 -100 -55 -107 -55 -6 0 -13 -3 -15 -7 -1 -5
-29 -21 -62 -38 -35 -18 -76 -50 -102 -80 -66 -77 -292 -360 -289 -363 2 -2
620 262 697 298 15 7 25 17 21 23 -3 6 -1 7 6 3 7 -5 36 2 65 14 l54 21 -80
112 c-44 62 -83 115 -86 119 -4 4 -50 -18 -102 -47z m176 -67 c4 -7 3 -8 -4
-4 -8 5 -12 0 -12 -12 0 -11 -7 -26 -17 -33 -14 -13 -15 -12 -5 6 6 11 13 28
16 38 6 20 12 21 22 5z m43 -65 c-3 -21 3 -32 18 -35 13 -2 9 -8 -16 -19 -33
-17 -76 -15 -65 2 3 5 11 6 17 2 7 -4 6 0 -2 10 -7 9 -11 17 -8 17 3 0 12 3
20 6 12 4 14 0 10 -15 -3 -12 -1 -21 4 -21 16 0 10 40 -7 50 -12 8 -11 10 8
10 12 0 21 -3 21 -7z"/>
<path d="M1300 3473 c-73 -37 -78 -163 -9 -199 41 -21 103 -15 107 10 3 16 0
18 -30 12 -62 -11 -97 37 -76 110 9 36 39 51 79 41 18 -5 39 17 28 27 -16 15
-69 14 -99 -1z"/>
<path d="M1705 3475 c-19 -11 -31 -12 -33 -6 -2 6 -10 11 -18 11 -11 0 -14
-28 -14 -155 0 -148 1 -155 20 -155 18 0 20 7 20 55 0 52 1 55 19 45 38 -20
78 -12 106 22 24 29 27 38 23 90 -6 87 -59 127 -123 93z m69 -47 c23 -32 20
-94 -4 -118 -24 -24 -38 -25 -68 -4 -17 12 -22 25 -22 60 0 25 5 54 10 65 15
27 64 25 84 -3z"/>
<path d="M1923 3479 c-22 -6 -30 -14 -27 -24 5 -11 16 -13 45 -9 25 4 44 2 54
-6 28 -23 17 -38 -36 -45 -29 -4 -59 -15 -70 -26 -26 -26 -25 -74 3 -93 29
-20 82 -21 98 -1 11 13 14 13 26 -2 10 -14 15 -15 24 -6 18 17 9 178 -10 197
-21 19 -69 26 -107 15z m87 -129 c0 -25 -34 -60 -59 -60 -50 0 -50 57 0 71 44
13 59 10 59 -11z"/>
<path d="M2912 3479 c-49 -14 -35 -35 21 -31 37 3 47 0 56 -17 16 -28 16 -28
-36 -36 -68 -9 -93 -28 -93 -69 0 -19 8 -40 18 -49 23 -21 71 -22 97 -3 17 12
21 12 31 -3 10 -12 15 -13 25 -4 17 17 7 179 -12 197 -20 20 -68 26 -107 15z
m84 -136 c-16 -63 -103 -74 -94 -12 2 17 11 26 33 30 62 13 68 11 61 -18z"/>
<path d="M3560 3472 c-95 -47 -60 -212 46 -212 108 0 140 173 40 215 -44 19
-44 19 -86 -3z m78 -30 c18 -12 31 -67 23 -99 -4 -15 -19 -34 -33 -42 -23 -13
-29 -13 -52 2 -22 15 -26 25 -26 67 0 31 6 54 16 64 17 17 51 21 72 8z"/>
<path d="M3992 3475 c-99 -43 -64 -215 43 -215 109 0 142 173 41 215 -42 18
-42 18 -84 0z m83 -41 c11 -12 15 -31 13 -67 -3 -43 -7 -54 -29 -66 -24 -13
-29 -13 -53 2 -22 15 -26 25 -26 67 0 54 18 80 55 80 13 0 31 -7 40 -16z"/>
<path d="M4255 3475 c-19 -11 -31 -12 -33 -6 -2 6 -10 11 -18 11 -11 0 -14
-28 -14 -155 0 -148 1 -155 20 -155 18 0 20 7 20 55 0 52 1 55 19 45 38 -20
78 -12 106 22 24 29 27 38 23 90 -6 87 -59 127 -123 93z m69 -47 c23 -32 20
-94 -4 -118 -24 -24 -38 -25 -68 -4 -17 12 -22 25 -22 60 0 25 5 54 10 65 15
27 64 25 84 -3z"/>
<path d="M4780 3473 c-24 -12 -38 -28 -45 -50 -7 -25 -15 -33 -32 -33 -21 0
-23 5 -23 45 0 38 -3 45 -20 45 -19 0 -20 -7 -20 -111 0 -100 2 -110 18 -107
13 2 18 15 20 51 3 42 5 47 28 47 14 0 24 -6 24 -15 0 -27 22 -63 47 -74 60
-28 115 -4 134 58 31 104 -45 187 -131 144z m78 -35 c53 -67 2 -177 -63 -134
-21 14 -25 24 -25 62 0 60 14 84 49 84 16 0 33 -6 39 -12z"/>
<path d="M6385 3476 c-37 -16 -55 -53 -55 -112 0 -64 40 -104 102 -104 47 0
86 20 74 38 -4 7 -17 8 -38 1 -39 -11 -76 -2 -88 21 -18 34 -11 39 63 42 l72
3 -3 35 c-6 65 -69 102 -127 76z m73 -38 c26 -26 13 -38 -38 -38 -52 0 -60 8
-34 34 18 19 55 21 72 4z"/>
<path d="M6811 3481 c-56 -15 -86 -102 -57 -163 19 -40 51 -58 101 -58 46 0
65 9 65 30 0 16 -4 17 -35 9 -43 -12 -84 5 -96 39 -8 22 -7 22 66 22 73 0 75
1 75 24 0 45 -19 77 -55 91 -19 8 -36 15 -37 14 -2 -1 -14 -4 -27 -8z m69 -50
c15 -30 14 -31 -40 -31 -34 0 -50 4 -50 13 0 38 71 52 90 18z"/>
<path d="M1420 3465 c0 -10 11 -15 35 -15 l35 0 0 -95 c0 -88 1 -95 20 -95 19
0 20 7 20 95 l0 95 35 0 c24 0 35 5 35 15 0 12 -17 15 -90 15 -73 0 -90 -3
-90 -15z"/>
<path d="M2110 3370 c0 -103 1 -110 20 -110 17 0 20 7 20 50 l0 50 55 0 55 0
0 -50 c0 -43 3 -50 20 -50 19 0 20 7 20 110 0 103 -1 110 -20 110 -17 0 -20
-7 -20 -45 l0 -45 -55 0 -55 0 0 45 c0 38 -3 45 -20 45 -19 0 -20 -7 -20 -110z"/>
<path d="M2362 3373 c3 -101 4 -108 24 -111 17 -2 33 14 77 85 l57 88 0 -88
c0 -79 2 -88 18 -85 15 3 17 18 20 111 l3 107 -26 0 c-21 0 -35 -14 -78 -81
l-52 -80 -3 80 c-3 73 -5 81 -23 81 -19 0 -20 -6 -17 -107z"/>
<path d="M2620 3370 l0 -110 90 0 90 0 0 -35 c0 -28 4 -35 20 -35 17 0 20 7
20 50 0 36 -4 52 -15 56 -12 5 -15 25 -15 95 0 82 -1 89 -20 89 -19 0 -20 -7
-20 -90 l0 -90 -55 0 -55 0 0 90 c0 83 -1 90 -20 90 -19 0 -20 -7 -20 -110z"/>
<path d="M3310 3370 c0 -103 1 -110 20 -110 17 0 20 7 20 53 l1 52 47 -53 c26
-29 55 -52 65 -52 25 0 22 7 -28 62 -25 28 -45 53 -45 57 0 4 18 25 40 46 45
44 49 55 21 55 -10 0 -37 -21 -60 -47 l-40 -48 -1 48 c0 40 -3 47 -20 47 -19
0 -20 -7 -20 -110z"/>
<path d="M3730 3465 c0 -10 11 -15 35 -15 l35 0 0 -95 c0 -88 1 -95 20 -95 19
0 20 7 20 95 l0 95 35 0 c24 0 35 5 35 15 0 12 -17 15 -90 15 -73 0 -90 -3
-90 -15z"/>
<path d="M4400 3477 c0 -2 18 -48 40 -102 22 -54 40 -106 40 -114 0 -28 -30
-61 -56 -61 -15 0 -24 -6 -24 -15 0 -25 63 -19 87 8 11 12 43 82 70 155 50
130 50 132 27 132 -20 0 -26 -11 -51 -85 l-27 -86 -32 83 c-24 65 -36 84 -53
86 -11 2 -21 2 -21 -1z"/>
<path d="M5072 3373 l3 -108 71 0 c57 0 76 4 93 19 25 23 27 58 5 80 -14 14
-14 18 0 37 8 12 12 29 9 38 -11 32 -36 41 -110 41 l-74 0 3 -107z m136 64
c19 -22 -3 -40 -50 -41 -40 -1 -43 1 -46 27 -3 26 -1 27 41 27 25 0 49 -6 55
-13z m0 -86 c8 -5 12 -17 10 -27 -2 -15 -14 -20 -56 -22 l-52 -3 0 30 c0 30 2
31 43 31 23 0 48 -4 55 -9z"/>
<path d="M5302 3373 l3 -108 66 0 c76 0 109 20 109 65 0 38 -27 58 -85 62
l-50 3 -3 43 c-3 34 -7 42 -23 42 -19 0 -20 -6 -17 -107z m133 -43 c0 -23 -4
-25 -47 -28 -48 -3 -48 -3 -48 28 0 31 0 31 48 28 43 -3 47 -5 47 -28z"/>
<path d="M5512 3373 c3 -93 5 -108 21 -111 15 -3 17 7 17 107 0 105 -1 111
-20 111 -20 0 -21 -5 -18 -107z"/>
<path d="M5720 3370 c0 -108 0 -110 23 -110 17 0 35 19 77 87 l55 87 3 -87 c2
-68 6 -87 17 -87 12 0 15 20 15 110 0 107 -1 110 -23 110 -17 0 -34 -19 -74
-82 l-53 -83 0 83 c0 75 -2 82 -20 82 -19 0 -20 -7 -20 -110z"/>
<path d="M5980 3370 l0 -110 140 0 140 0 0 -35 c0 -28 4 -35 20 -35 18 0 20 7
20 55 0 42 -3 55 -15 55 -12 0 -15 17 -15 90 0 83 -1 90 -20 90 -19 0 -20 -7
-20 -90 l0 -90 -45 0 -45 0 0 90 c0 83 -1 90 -20 90 -19 0 -20 -7 -20 -90 l0
-90 -40 0 -40 0 0 90 c0 83 -1 90 -20 90 -19 0 -20 -7 -20 -110z"/>
<path d="M6540 3465 c0 -10 11 -15 35 -15 l35 0 0 -95 c0 -88 1 -95 20 -95 19
0 20 7 20 95 l0 95 35 0 c24 0 35 5 35 15 0 12 -17 15 -90 15 -73 0 -90 -3
-90 -15z"/>
<path d="M15589 3433 c-42 -51 -42 -53 0 -30 39 21 47 37 25 44 -6 2 -17 -4
-25 -14z"/>
<path d="M3096 3293 c-17 -62 -17 -83 -2 -83 16 0 29 24 42 75 5 21 2 25 -14
25 -11 0 -23 -8 -26 -17z"/>
<path d="M2340 3056 c0 -45 100 -65 133 -28 23 25 21 42 -3 42 -11 0 -20 -6
-20 -14 0 -15 -25 -24 -52 -18 -10 2 -18 10 -18 18 0 8 -9 14 -20 14 -11 0
-20 -6 -20 -14z"/>
<path d="M1555 2976 c-37 -16 -55 -53 -55 -112 0 -64 40 -104 102 -104 47 0
86 20 74 38 -4 7 -17 8 -38 1 -39 -11 -76 -2 -88 21 -18 34 -11 39 63 42 l72
3 -3 35 c-5 64 -69 102 -127 76z m73 -38 c26 -26 13 -38 -38 -38 -52 0 -60 8
-34 34 18 19 55 21 72 4z"/>
<path d="M2133 2979 c-22 -6 -30 -14 -27 -24 5 -11 16 -13 45 -9 25 4 44 2 54
-6 28 -23 17 -38 -36 -45 -29 -4 -59 -15 -70 -26 -26 -26 -25 -74 3 -93 29
-20 82 -21 98 -1 11 13 14 13 26 -2 10 -14 15 -15 24 -6 18 17 9 178 -10 197
-21 19 -69 26 -107 15z m87 -129 c0 -25 -34 -60 -59 -60 -50 0 -50 57 0 71 44
13 59 10 59 -11z"/>
<path d="M2855 2976 c-37 -16 -55 -53 -55 -112 0 -62 40 -104 98 -104 53 0 72
8 72 30 0 16 -4 17 -32 10 -39 -12 -76 -3 -88 20 -19 35 -12 40 60 40 l70 0 0
34 c0 67 -65 109 -125 82z m73 -38 c26 -26 13 -38 -38 -38 -54 0 -55 1 -40 31
12 22 59 26 78 7z"/>
<path d="M3333 2979 c-54 -16 -42 -37 20 -35 46 1 52 -1 55 -21 3 -19 -3 -23
-44 -29 -61 -9 -99 -43 -89 -82 3 -15 13 -33 22 -39 23 -18 74 -16 101 3 20
14 22 14 22 0 0 -9 7 -16 15 -16 24 0 22 181 -2 203 -25 21 -62 27 -100 16z
m77 -133 c0 -46 -69 -74 -89 -37 -17 31 13 56 72 60 12 1 17 -6 17 -23z"/>
<path d="M1252 2873 c3 -100 4 -108 23 -108 17 0 20 8 23 48 l3 47 55 0 54 0
0 -51 c0 -43 3 -50 18 -47 15 3 17 18 20 111 3 102 2 107 -18 107 -17 0 -20
-6 -20 -45 l0 -45 -55 0 -55 0 0 45 c0 41 -2 45 -25 45 l-26 0 3 -107z"/>
<path d="M1840 2870 c0 -103 1 -110 20 -110 17 0 20 7 20 50 l0 50 55 0 55 0
0 -50 c0 -43 3 -50 20 -50 19 0 20 7 20 110 0 103 -1 110 -20 110 -17 0 -20
-7 -20 -45 l0 -45 -55 0 -55 0 0 45 c0 38 -3 45 -20 45 -19 0 -20 -7 -20 -110z"/>
<path d="M2320 2870 c0 -107 1 -110 23 -110 17 0 34 19 72 81 l50 80 5 -78 c4
-64 8 -78 23 -81 15 -3 17 7 17 107 0 110 0 111 -24 111 -19 0 -34 -16 -72
-77 l-49 -78 -3 78 c-3 69 -5 77 -22 77 -19 0 -20 -7 -20 -110z"/>
<path d="M2620 2957 c0 -39 -30 -127 -51 -148 -14 -14 -19 -33 -19 -69 0 -43
3 -50 20 -50 16 0 20 7 20 35 l0 35 70 0 70 0 0 -35 c0 -28 4 -35 20 -35 18 0
20 7 20 55 0 42 -3 55 -15 55 -12 0 -15 17 -15 90 l0 90 -60 0 c-56 0 -60 -2
-60 -23z m80 -82 l0 -75 -46 0 c-36 0 -44 3 -37 13 10 12 26 59 37 110 4 18
13 27 26 27 18 0 20 -7 20 -75z"/>
<path d="M3032 2873 c3 -93 5 -108 21 -111 14 -3 17 4 17 47 l0 51 60 0 60 0
0 -51 c0 -43 3 -50 18 -47 15 3 17 18 20 111 3 101 2 107 -17 107 -16 0 -20
-8 -23 -42 l-3 -43 -57 -3 -58 -3 0 46 c0 39 -3 45 -20 45 -20 0 -21 -5 -18
-107z"/>
<path d="M14901 2929 c-8 -13 -18 -18 -29 -14 -9 3 -13 3 -10 -1 4 -3 0 -13
-8 -21 -17 -17 -85 -117 -102 -150 l-12 -21 52 21 c43 19 58 32 93 87 39 62
53 104 36 114 -4 3 -13 -4 -20 -15z"/>
</g>
</svg>
